<?xml version="1.0" encoding="utf-8"?>
<!-- Generator: Adobe Illustrator 18.0.0, SVG Export Plug-In . SVG Version: 6.00 Build 0)  -->
<!DOCTYPE svg PUBLIC "-//W3C//DTD SVG 1.1//EN" "http://www.w3.org/Graphics/SVG/1.1/DTD/svg11.dtd">
<svg version="1.1" id="レイヤー_1" xmlns="http://www.w3.org/2000/svg" xmlns:xlink="http://www.w3.org/1999/xlink" x="0px"
	 y="0px" viewBox="0 0 352 192" enable-background="new 0 0 352 192" xml:space="preserve">
<g>
	<path fill="#FFFFFF" d="M38,192.1V159H0V0h352v158H91.8L38,192.1z M10,149h38v24.9L88.9,148H342V10H10V149z"/>
	<g>
		<path fill="#FFFFFF" d="M57.6,106.9c-3-1.7-5.4-4.3-7.5-7.4c-3.5-5.4-5.5-12.6-5.5-20.3s2-14.8,5.4-20.3c2.1-3,4.5-5.5,7.4-7.2
			c3.2-2,6.8-2.9,10.7-2.9s7.5,0.9,10.6,2.9c3,1.7,5.4,4.2,7.4,7.4c3.5,5.4,5.5,12.6,5.5,20.3s-2,14.8-5.4,20.2
			c-2,3.1-4.4,5.6-7.3,7.3c-3.2,1.9-6.7,2.9-10.6,2.9S60.8,108.8,57.6,106.9z M58.1,64.3c-2.5,3.8-3.9,9.3-3.9,15
			c0,5.7,1.5,11.2,3.9,15.1c2.5,3.9,6,5.9,10.2,5.9c4.1,0,7.4-2,9.8-5.8c2.5-3.8,3.9-9.3,3.9-15c0-5.7-1.4-11.2-3.9-15.1
			c-2.5-3.9-5.9-5.9-10-5.9C63.9,58.4,60.6,60.4,58.1,64.3z"/>
		<path fill="#FFFFFF" d="M116.3,109.8c-6.2-0.4-12.6-2.9-19.2-7.4l5.4-7.8c9,6.3,17.5,7.4,23.3,3.1c4.1-3.1,6.1-8.5,4.6-13
			c-0.7-2-2-3.7-4.1-4.9c-2.5-1.6-6-2.3-10.2-2.3l-8.1,0.1l10.5-19.3H101v-9.4h33.5l-10.9,19.8c2.9,0.7,5.4,1.6,7.7,3
			c3.9,2.4,6.6,5.8,8,10c1.4,4,1.3,8.6-0.1,12.9c-1.5,4.2-4.2,8-7.7,10.7c-3.9,3-8.7,4.5-13.9,4.5
			C117.2,109.8,116.7,109.8,116.3,109.8z"/>
		<path fill="#FFFFFF" d="M185.9,109.8h-25.5h-9.4V48.9h9.5v52.2h25.4V109.8z"/>
		<path fill="#FFFFFF" d="M206.2,107.4c-3.7-1.6-6.9-3.8-9.7-6.6s-5-6-6.6-9.7s-2.4-7.7-2.4-11.8s0.8-8.1,2.4-11.9
			c1.6-3.6,3.8-6.8,6.6-9.7c2.8-2.8,6-4.9,9.7-6.5c3.7-1.6,7.7-2.4,11.8-2.4c4.1,0,8.1,0.8,11.9,2.4c3.6,1.6,6.8,3.7,9.7,6.5
			c2.8,2.9,4.9,6.1,6.5,9.7c1.6,3.8,2.4,7.8,2.4,11.9s-0.8,8.1-2.4,11.8s-3.7,6.9-6.5,9.7c-2.9,2.8-6.1,5-9.7,6.6
			c-3.8,1.6-7.8,2.4-11.9,2.4C213.9,109.8,209.9,109,206.2,107.4z M203.2,64.6c-3.9,3.9-6.2,9.2-6.2,14.8s2.2,10.8,6.2,14.8
			s9.2,6.1,14.8,6.1c5.6,0,10.8-2.2,14.8-6.1s6.2-9.2,6.2-14.8s-2.2-10.8-6.2-14.8s-9.2-6.1-14.8-6.1
			C212.4,58.4,207.2,60.7,203.2,64.6z"/>
		<path fill="#FFFFFF" d="M304.5,86.8v16.5l-2.1,1.5c-0.1,0-0.1,0-0.2,0.1s-0.2,0.2-0.3,0.2c-0.1,0.1-0.2,0.2-0.2,0.2
			c-0.1,0.1-0.2,0.2-0.3,0.2c-0.1,0.1-0.2,0.2-0.3,0.2c-0.1,0.1-0.2,0.1-0.2,0.2s-0.2,0.1-0.2,0.2c-0.2,0.1-0.2,0.1-0.4,0.2
			c-0.1,0.1-0.2,0.1-0.2,0.2s-0.2,0.2-0.4,0.2c-0.1,0.1-0.1,0.1-0.2,0.2c-0.1,0-0.1,0-0.2,0c-0.1,0.1-0.2,0.2-0.4,0.2
			s-0.4,0.2-0.6,0.2c0,0,0,0-0.1,0.1c-3.4,1.6-7.1,2.4-10.9,2.6c0,0,0,0-0.1,0c-0.2,0-0.4,0-0.7,0h-0.1c-0.2,0-0.5,0-0.7,0
			c-3.3,0-6.6-0.5-9.6-1.6c-0.1,0-0.1,0-0.1,0c-0.3-0.1-0.6-0.2-0.9-0.3c-0.4-0.2-0.8-0.3-1.2-0.5c-1.1-0.4-2-0.9-3-1.5
			c-2.5-1.3-4.8-3-6.7-5.1c-2.8-2.8-5-6-6.6-9.7c-1.1-2.8-2-5.7-2.2-8.8c-0.1-1-0.2-2.1-0.2-3c0-0.5,0-1.1,0-1.6
			c0.2-3.5,1-7.1,2.4-10.3c1.6-3.6,3.8-6.9,6.6-9.7s6-5,9.7-6.5c3.7-1.6,7.7-2.4,11.8-2.4c0.2,0,0.5,0,0.7,0h0.1c0.2,0,0.5,0,0.7,0
			c0.1,0,0.1,0,0.1,0c0.2,0,0.5,0,0.7,0.1c3.5,0.2,7,1.1,10.2,2.5c0,0,0,0.1,0.1,0.1c0.2,0.1,0.3,0.2,0.5,0.2c0.1,0,0.1,0,0.1,0
			v11.2c-1.2-1.1-2.6-1.9-4.1-2.6c-1.2-0.6-2.5-1.1-3.8-1.4c-0.1,0-0.2,0-0.2-0.1c-0.1,0-0.2,0-0.2,0c-0.1-0.1-0.2-0.1-0.3-0.1
			c0,0-0.1,0-0.2-0.1c-0.3-0.1-0.7-0.1-1.1-0.2c-0.1,0-0.1,0-0.2,0s-0.2-0.1-0.3-0.1s-0.1,0-0.2,0s-0.2,0-0.3-0.1
			c-0.1,0-0.2,0-0.2,0c-0.2,0-0.3,0-0.5,0c-0.1,0-0.2-0.1-0.2-0.1s-0.2,0-0.2,0c-0.1,0-0.2,0-0.3,0s-0.2,0-0.2,0c-0.2,0-0.4,0-0.6,0
			c-3.9,0-7.5,1-10.7,3c-0.1,0.1-0.2,0.2-0.4,0.2c-1.3,0.8-2.5,1.8-3.6,3c-0.3,0.3-0.7,0.7-1.1,1.1c0,0,0,0.1-0.1,0.1
			c-0.4,0.5-0.7,1-1.1,1.5c-0.1,0.1-0.2,0.2-0.2,0.2c-0.2,0.2-0.3,0.5-0.5,0.7c-0.1,0.1-0.2,0.2-0.2,0.3c-1.2,2-2,4-2.5,6.2
			c-0.1,0.1-0.1,0.1-0.1,0.2c-0.2,0.8-0.3,1.6-0.4,2.5c0,0.3,0,0.7,0,0.9c-0.1,0.4-0.1,0.7-0.1,1.1c0,0.3,0,0.7,0.1,1.1
			c0.1,1.6,0.3,3.1,0.7,4.6c1,3.4,2.8,6.6,5.3,9.1c3.9,3.9,9.2,6.1,14.8,6.1c0.2,0,0.4,0,0.6,0c0.1,0,0.2,0,0.2-0.1
			c0.1,0,0.2,0,0.3,0s0.2,0,0.2,0s0.2,0,0.2,0c0.2,0,0.2,0,0.4,0c0-0.1,0.1-0.1,0.2-0.1s0.2,0,0.3,0s0.1,0,0.2,0
			c0.6-0.1,1.2-0.2,1.8-0.3c0.1,0,0.1,0,0.2-0.1c0.1,0,0.2,0,0.3-0.1c0.1,0,0.2,0,0.2,0c0.1-0.1,0.2-0.1,0.2-0.1
			c0.1-0.1,0.2-0.1,0.3-0.1s0.2-0.1,0.2-0.1c1.1-0.3,2.3-0.7,3.4-1.3c0,0,0,0,0.1,0V86.8h-11.5v-8.6h21V86.8z"/>
	</g>
</g>
</svg>
